<svg width="1287" height="971" viewBox="0 0 1287 971" fill="none" xmlns="http://www.w3.org/2000/svg">
<path fill-rule="evenodd" clip-rule="evenodd" d="M821.069 12.4531C655.773 -36.2188 482.318 58.3237 433.646 223.62L362.465 465.358C357.471 482.319 338.595 492.021 321.722 486.735C320.339 486.301 318.948 485.879 317.552 485.467C186.395 446.848 48.7651 521.864 10.1457 653.02C-28.4737 784.176 46.5422 921.807 177.698 960.426C269.049 987.324 363.54 959.097 425.53 895.169C461.969 857.592 523.419 837.996 573.631 852.781L815.37 923.962C980.666 972.633 1154.12 878.091 1202.79 712.795L1273.97 471.057C1322.65 305.761 1228.1 132.306 1062.81 83.6338L821.069 12.4531Z" fill="#FEBC0A" fill-opacity="0.7"/>
</svg>
